<svg width="181" height="46" viewBox="0 0 181 46" fill="none" xmlns="http://www.w3.org/2000/svg">
<path d="M7.07674 5.62249C9.26061 5.62249 11.0015 6.19009 12.2995 7.3253C13.618 8.46051 14.4421 9.95984 14.7718 11.8233H9.82718C9.68296 11.095 9.35332 10.5274 8.83826 10.1205C8.3438 9.6921 7.71542 9.47791 6.95313 9.47791C6.35565 9.47791 5.9024 9.61714 5.59336 9.89558C5.28432 10.1526 5.1298 10.5274 5.1298 11.0201C5.1298 11.577 5.40794 11.9946 5.9642 12.2731C6.54108 12.5515 7.43728 12.83 8.65283 13.1084C9.97139 13.4297 11.053 13.7617 11.8977 14.1044C12.7424 14.4257 13.4738 14.9612 14.0919 15.7108C14.71 16.4605 15.019 17.4672 15.019 18.7309C15.019 19.759 14.7512 20.6693 14.2155 21.4618C13.6798 22.2544 12.9073 22.8755 11.8977 23.3253C10.8882 23.7751 9.69326 24 8.31289 24C5.98481 24 4.12028 23.4645 2.71931 22.3936C1.31834 21.3226 0.463335 19.7912 0.154297 17.7992H5.25342C5.33583 18.5703 5.64487 19.1593 6.18053 19.5663C6.7368 19.9732 7.44759 20.1767 8.31289 20.1767C8.91037 20.1767 9.36362 20.0375 9.67266 19.759C9.9817 19.4592 10.1362 19.0736 10.1362 18.6024C10.1362 17.9813 9.84778 17.5422 9.27091 17.2851C8.71464 17.0067 7.79783 16.7175 6.52047 16.4177C5.24312 16.1392 4.19239 15.8394 3.36829 15.5181C2.54419 15.1968 1.8334 14.6827 1.23593 13.9759C0.638456 13.2477 0.339719 12.2624 0.339719 11.0201C0.339719 9.41366 0.926891 8.11781 2.10123 7.13253C3.27558 6.12584 4.93408 5.62249 7.07674 5.62249Z" fill="black"/>
<path d="M35.8694 5.84739V23.7751H30.554V20.5301C30.0595 21.5797 29.3178 22.415 28.3289 23.0361C27.3606 23.6573 26.2274 23.9679 24.9295 23.9679C22.9516 23.9679 21.3755 23.2825 20.2012 21.9116C19.0474 20.5408 18.4706 18.656 18.4706 16.257V5.84739H23.7242V15.5823C23.7242 16.8032 24.023 17.7564 24.6204 18.4418C25.2385 19.1058 26.0626 19.4378 27.0927 19.4378C28.1641 19.4378 29.0088 19.0843 29.6268 18.3775C30.2449 17.6707 30.554 16.664 30.554 15.3574V5.84739H35.8694Z" fill="black"/>
<path d="M50.884 5.62249C52.3056 5.62249 53.5727 5.99732 54.6852 6.74699C55.8183 7.47523 56.7043 8.53547 57.3429 9.92771C58.0022 11.2985 58.3319 12.9264 58.3319 14.8112C58.3319 16.6747 58.0022 18.3025 57.3429 19.6948C56.7043 21.087 55.8183 22.158 54.6852 22.9076C53.5727 23.6359 52.3056 24 50.884 24C49.5655 24 48.4323 23.6894 47.4846 23.0683C46.5369 22.4471 45.8467 21.6011 45.4141 20.5301V23.7751H40.1295V0H45.4141V9.09237C45.8467 8.02142 46.5369 7.17537 47.4846 6.55422C48.4323 5.93307 49.5655 5.62249 50.884 5.62249ZM49.1843 10.4418C48.0718 10.4418 47.155 10.838 46.4339 11.6305C45.7334 12.4016 45.3832 13.4618 45.3832 14.8112C45.3832 16.1392 45.7334 17.1995 46.4339 17.992C47.155 18.7845 48.0718 19.1807 49.1843 19.1807C50.3175 19.1807 51.224 18.7952 51.9039 18.0241C52.6044 17.253 52.9546 16.1821 52.9546 14.8112C52.9546 13.4404 52.6044 12.3695 51.9039 11.5984C51.224 10.8273 50.3175 10.4418 49.1843 10.4418Z" fill="black"/>
<path d="M67.193 5.62249C69.3769 5.62249 71.1178 6.19009 72.4158 7.3253C73.7343 8.46051 74.5584 9.95984 74.8881 11.8233H69.9435C69.7992 11.095 69.4696 10.5274 68.9545 10.1205C68.4601 9.6921 67.8317 9.47791 67.0694 9.47791C66.4719 9.47791 66.0187 9.61714 65.7096 9.89558C65.4006 10.1526 65.2461 10.5274 65.2461 11.0201C65.2461 11.577 65.5242 11.9946 66.0805 12.2731C66.6574 12.5515 67.5536 12.83 68.7691 13.1084C70.0877 13.4297 71.1693 13.7617 72.014 14.1044C72.8587 14.4257 73.5901 14.9612 74.2082 15.7108C74.8262 16.4605 75.1353 17.4672 75.1353 18.7309C75.1353 19.759 74.8675 20.6693 74.3318 21.4618C73.7961 22.2544 73.0235 22.8755 72.014 23.3253C71.0045 23.7751 69.8095 24 68.4292 24C66.1011 24 64.2366 23.4645 62.8356 22.3936C61.4346 21.3226 60.5796 19.7912 60.2706 17.7992H65.3697C65.4521 18.5703 65.7611 19.1593 66.2968 19.5663C66.8531 19.9732 67.5639 20.1767 68.4292 20.1767C69.0266 20.1767 69.4799 20.0375 69.7889 19.759C70.098 19.4592 70.2525 19.0736 70.2525 18.6024C70.2525 17.9813 69.9641 17.5422 69.3872 17.2851C68.8309 17.0067 67.9141 16.7175 66.6368 16.4177C65.3594 16.1392 64.3087 15.8394 63.4846 15.5181C62.6605 15.1968 61.9497 14.6827 61.3522 13.9759C60.7547 13.2477 60.456 12.2624 60.456 11.0201C60.456 9.41366 61.0432 8.11781 62.2175 7.13253C63.3919 6.12584 65.0504 5.62249 67.193 5.62249Z" fill="black"/>
<path d="M88.4451 19.0522V23.7751H86.0656C84.0465 23.7751 82.4704 23.261 81.3373 22.2329C80.2247 21.1834 79.6685 19.4592 79.6685 17.0602V10.4739H77.3507V5.84739H79.6685V1.44578H84.953V5.84739H88.4142V10.4739H84.953V17.1566C84.953 17.8635 85.0869 18.3561 85.3548 18.6345C85.6432 18.913 86.1171 19.0522 86.7763 19.0522H88.4451Z" fill="black"/>
<path d="M97.7815 9.22088C98.4408 8.12851 99.2854 7.26104 100.316 6.61847C101.366 5.9759 102.499 5.65462 103.715 5.65462V11.5341H102.201C100.8 11.5341 99.7078 11.8447 98.9249 12.4659C98.1626 13.087 97.7815 14.1365 97.7815 15.6145V23.7751H92.4969V5.84739H97.7815V9.22088Z" fill="black"/>
<path d="M113.096 5.62249C114.415 5.62249 115.548 5.93307 116.496 6.55422C117.444 7.17537 118.144 8.02142 118.597 9.09237V5.84739H123.851V23.7751H118.597V20.5301C118.144 21.6011 117.444 22.4471 116.496 23.0683C115.548 23.6894 114.415 24 113.096 24C111.675 24 110.398 23.6359 109.264 22.9076C108.152 22.158 107.266 21.087 106.607 19.6948C105.968 18.3025 105.649 16.6747 105.649 14.8112C105.649 12.9264 105.968 11.2985 106.607 9.92771C107.266 8.53547 108.152 7.47523 109.264 6.74699C110.398 5.99732 111.675 5.62249 113.096 5.62249ZM114.796 10.4418C113.663 10.4418 112.746 10.8273 112.046 11.5984C111.366 12.3695 111.026 13.4404 111.026 14.8112C111.026 16.1821 111.366 17.253 112.046 18.0241C112.746 18.7952 113.663 19.1807 114.796 19.1807C115.909 19.1807 116.815 18.7845 117.516 17.992C118.237 17.1995 118.597 16.1392 118.597 14.8112C118.597 13.4618 118.237 12.4016 117.516 11.6305C116.815 10.838 115.909 10.4418 114.796 10.4418Z" fill="black"/>
<path d="M137.873 19.0522V23.7751H135.493C133.474 23.7751 131.898 23.261 130.765 22.2329C129.653 21.1834 129.096 19.4592 129.096 17.0602V10.4739H126.779V5.84739H129.096V1.44578H134.381V5.84739H137.842V10.4739H134.381V17.1566C134.381 17.8635 134.515 18.3561 134.783 18.6345C135.071 18.913 135.545 19.0522 136.204 19.0522H137.873Z" fill="black"/>
<path d="M157.531 14.3293C157.531 14.7791 157.48 15.2718 157.377 15.8072H145.417C145.479 17.1566 145.808 18.1312 146.406 18.7309C147.003 19.3092 147.766 19.5984 148.693 19.5984C149.476 19.5984 150.125 19.3949 150.64 18.988C151.155 18.581 151.495 18.0562 151.66 17.4137H157.253C157.026 18.6774 156.532 19.8126 155.77 20.8193C155.007 21.8046 154.039 22.5863 152.865 23.1647C151.69 23.7216 150.382 24 148.94 24C147.251 24 145.747 23.6359 144.428 22.9076C143.13 22.158 142.11 21.087 141.369 19.6948C140.627 18.3025 140.256 16.6747 140.256 14.8112C140.256 12.9264 140.617 11.2985 141.338 9.92771C142.079 8.53547 143.109 7.47523 144.428 6.74699C145.747 5.99732 147.251 5.62249 148.94 5.62249C150.65 5.62249 152.154 5.98661 153.452 6.71486C154.75 7.44311 155.749 8.47122 156.45 9.7992C157.171 11.1058 157.531 12.6158 157.531 14.3293ZM152.185 13.494C152.205 12.3159 151.896 11.4378 151.258 10.8594C150.64 10.2597 149.867 9.95984 148.94 9.95984C147.972 9.95984 147.168 10.2597 146.529 10.8594C145.891 11.4592 145.53 12.3373 145.448 13.494H152.185Z" fill="black"/>
<path d="M180.154 18.9998V23.9998H161.466V18.9998H180.154Z" fill="#24CC85"/>
<path d="M1.295 43V33.998H4.396C5.39933 33.998 6.17867 34.2477 6.734 34.747C7.28933 35.2463 7.567 35.9463 7.567 36.847C7.567 37.7337 7.28933 38.4267 6.734 38.926C6.17867 39.4253 5.39933 39.675 4.396 39.675H2.8V43H1.295ZM2.8 38.373H4.396C4.93267 38.373 5.33867 38.2307 5.614 37.946C5.894 37.6613 6.034 37.295 6.034 36.847C6.034 36.385 5.894 36.0093 5.614 35.72C5.33867 35.4307 4.93267 35.286 4.396 35.286H2.8V38.373ZM17.2934 33.998V41.698H21.0804V43H15.8024V33.998H17.2934ZM28.036 43L31.109 33.998H32.971L35.939 43H34.364L33.706 40.956H30.297L29.618 43H28.036ZM30.675 39.822H33.342L32.019 35.783L30.675 39.822ZM42.4348 33.998H44.2128L46.4808 38.009H46.1728L48.5108 33.998H50.2748L47.0548 39.29V43H45.5638V39.29L42.4348 33.998ZM61.4075 43.189C60.6795 43.189 60.0192 42.9977 59.4265 42.615C58.8385 42.2277 58.3695 41.6887 58.0195 40.998C57.6695 40.3073 57.4945 39.4953 57.4945 38.562C57.4945 37.8153 57.6018 37.1503 57.8165 36.567C58.0358 35.979 58.3392 35.482 58.7265 35.076C59.1138 34.6653 59.5642 34.355 60.0775 34.145C60.5955 33.9303 61.1508 33.823 61.7435 33.823C62.5462 33.823 63.2275 33.9957 63.7875 34.341C64.3475 34.6863 64.7955 35.2277 65.1315 35.965L63.6265 36.35C63.3698 35.9627 63.0782 35.671 62.7515 35.475C62.4295 35.2743 62.0702 35.174 61.6735 35.174C61.2022 35.174 60.7705 35.3117 60.3785 35.587C59.9912 35.8577 59.6808 36.2473 59.4475 36.756C59.2142 37.26 59.0975 37.862 59.0975 38.562C59.0975 39.206 59.1978 39.773 59.3985 40.263C59.5992 40.753 59.8815 41.1357 60.2455 41.411C60.6142 41.6863 61.0412 41.824 61.5265 41.824C61.9325 41.824 62.2942 41.733 62.6115 41.551C62.9288 41.369 63.1785 41.1053 63.3605 40.76C63.5472 40.41 63.6405 39.9853 63.6405 39.486H63.9975C63.9975 40.2373 63.9065 40.8907 63.7245 41.446C63.5472 42.0013 63.2672 42.4307 62.8845 42.734C62.5065 43.0373 62.0142 43.189 61.4075 43.189ZM63.8645 43L63.6405 40.977V39.437L61.5475 39.388V38.429H65.0755V43H63.8645ZM73.9511 43V33.998H77.2201C78.2841 33.998 79.0961 34.2477 79.6561 34.747C80.2207 35.2463 80.5031 35.909 80.5031 36.735C80.5031 37.5423 80.2207 38.1957 79.6561 38.695C79.0961 39.1943 78.2841 39.444 77.2201 39.444H75.4421V43H73.9511ZM78.8651 43L76.4291 38.821H78.0251L80.8111 43H78.8651ZM75.4421 38.429H77.0801C77.7007 38.429 78.1721 38.2843 78.4941 37.995C78.8161 37.701 78.9771 37.323 78.9771 36.861C78.9771 36.385 78.8277 36.0047 78.5291 35.72C78.2351 35.4307 77.7987 35.286 77.2201 35.286H75.4421V38.429ZM92.6448 43.189C91.8608 43.189 91.1654 43.014 90.5588 42.664C89.9521 42.314 89.4761 41.7913 89.1308 41.096C88.7854 40.4007 88.6128 39.535 88.6128 38.499C88.6128 37.4443 88.7854 36.5717 89.1308 35.881C89.4761 35.1903 89.9521 34.6747 90.5588 34.334C91.1654 33.9933 91.8608 33.823 92.6448 33.823C93.4334 33.823 94.1311 33.998 94.7378 34.348C95.3444 34.6933 95.8181 35.2137 96.1588 35.909C96.5041 36.5997 96.6768 37.463 96.6768 38.499C96.6768 39.549 96.5041 40.4217 96.1588 41.117C95.8181 41.8123 95.3444 42.3327 94.7378 42.678C94.1311 43.0187 93.4334 43.189 92.6448 43.189ZM92.6448 41.831C93.4101 41.831 94.0168 41.5463 94.4648 40.977C94.9128 40.403 95.1368 39.5723 95.1368 38.485C95.1368 37.4303 94.9128 36.6137 94.4648 36.035C94.0168 35.4517 93.4101 35.16 92.6448 35.16C91.8888 35.16 91.2844 35.4517 90.8318 36.035C90.3838 36.6183 90.1598 37.4397 90.1598 38.499C90.1598 39.5817 90.3838 40.4077 90.8318 40.977C91.2844 41.5463 91.8888 41.831 92.6448 41.831ZM104.963 33.998H106.454V39.64C106.454 40.41 106.648 40.9677 107.035 41.313C107.427 41.6537 107.933 41.824 108.554 41.824C109.17 41.824 109.672 41.6537 110.059 41.313C110.446 40.9677 110.64 40.41 110.64 39.64V33.998H112.131V39.64C112.131 40.396 111.986 41.04 111.697 41.572C111.412 42.0993 111.002 42.5007 110.465 42.776C109.933 43.0513 109.296 43.189 108.554 43.189C107.807 43.189 107.166 43.0513 106.629 42.776C106.097 42.5007 105.686 42.0993 105.397 41.572C105.108 41.04 104.963 40.396 104.963 39.64V33.998ZM121.052 33.998H122.718L126.939 40.697H126.82V33.998H128.311V43H126.764L122.305 35.951H122.543V43H121.052V33.998ZM137.418 33.998H140.253C141.168 33.998 141.966 34.1823 142.647 34.551C143.328 34.9197 143.858 35.4423 144.236 36.119C144.619 36.791 144.81 37.5867 144.81 38.506C144.81 39.4113 144.619 40.2023 144.236 40.879C143.858 41.551 143.328 42.0737 142.647 42.447C141.966 42.8157 141.168 43 140.253 43H137.418V33.998ZM138.909 35.342V41.67H140.253C140.86 41.67 141.382 41.5323 141.821 41.257C142.264 40.9817 142.605 40.606 142.843 40.13C143.086 39.6493 143.207 39.108 143.207 38.506C143.207 37.89 143.086 37.3463 142.843 36.875C142.605 36.399 142.264 36.0257 141.821 35.755C141.382 35.4797 140.86 35.342 140.253 35.342H138.909Z" fill="black"/>
</svg>
